<svg version="1.2" baseProfile="tiny" xmlns="http://www.w3.org/2000/svg" viewBox="0 0 12 12"><circle fill="#FFF" cx="6" cy="6" r="5.5"/><path fill="#333" d="M6 1a5 5 0 1 1-.01 10.01A5 5 0 0 1 6 1m0-1a6 6 0 1 0 0 12A6 6 0 0 0 6 0z"/><g><path fill="#333" d="M4.09 3.03a3.28 3.28 0 0 1 .83-.55 2.75 2.75 0 0 1 1.15-.23c.3 0 .57.04.81.13s.46.2.64.35c.18.16.32.35.42.57.1.21.15.46.15.73a1.88 1.88 0 0 1-.8 1.6l-.41.3c-.13.1-.24.2-.33.29-.09.1-.14.2-.16.3l-.11.81H5.5l-.08-.88a.7.7 0 0 1 .08-.43c.07-.12.16-.24.28-.34.12-.11.25-.21.4-.31.14-.1.28-.21.4-.33.13-.12.23-.26.32-.4a1.07 1.07 0 0 0 .04-.92.82.82 0 0 0-.22-.29c-.1-.08-.2-.14-.34-.18a1.66 1.66 0 0 0-1.32.17l-.26.16c-.06.05-.12.08-.17.08a.26.26 0 0 1-.24-.15l-.3-.48zM5.1 9.36a.77.77 0 0 1 .21-.52.73.73 0 0 1 .53-.22.75.75 0 0 1 .53 1.28.75.75 0 0 1-.53.21c-.1 0-.2-.02-.3-.06a.7.7 0 0 1-.38-.4.76.76 0 0 1-.06-.29z"/></g></svg>