<?xml version="1.0" encoding="utf-8"?>
<!-- Generator: Adobe Illustrator 23.0.1, SVG Export Plug-In . SVG Version: 6.00 Build 0)  -->
<svg version="1.2" baseProfile="tiny" id="Layer_1" xmlns="http://www.w3.org/2000/svg" xmlns:xlink="http://www.w3.org/1999/xlink"
     x="0px" y="0px" viewBox="0 0 12 12" xml:space="preserve">
<g>
    <circle fill="#FFFFFF" cx="6" cy="6" r="5.5"/>
    <path fill="#333333" d="M6,1c2.757,0,5,2.243,5,5s-2.243,5-5,5S1,8.757,1,6S3.243,1,6,1 M6,0C2.686,0,0,2.686,0,6s2.686,6,6,6
        s6-2.686,6-6S9.314,0,6,0L6,0z"/>
</g>
<g>
    <path fill="#333333" d="M4.087,3.026c0.118-0.107,0.246-0.207,0.384-0.299C4.61,2.634,4.761,2.552,4.923,2.481
        C5.085,2.41,5.261,2.353,5.452,2.312c0.19-0.041,0.396-0.061,0.617-0.061c0.295,0,0.567,0.042,0.814,0.125S7.344,2.58,7.524,2.734
        c0.18,0.155,0.319,0.342,0.419,0.561c0.1,0.219,0.149,0.464,0.149,0.734c0,0.271-0.039,0.505-0.118,0.702
        C7.896,4.929,7.797,5.101,7.676,5.247C7.555,5.393,7.423,5.52,7.281,5.629c-0.142,0.109-0.277,0.21-0.403,0.304
        C6.751,6.027,6.643,6.122,6.552,6.216C6.461,6.311,6.406,6.415,6.389,6.529L6.277,7.33h-0.78l-0.08-0.881
        c-0.018-0.167,0.009-0.312,0.08-0.433c0.071-0.121,0.166-0.235,0.286-0.341c0.119-0.107,0.251-0.209,0.395-0.307
        C6.322,5.269,6.456,5.16,6.581,5.039c0.124-0.121,0.23-0.256,0.315-0.406c0.085-0.149,0.128-0.329,0.128-0.539
        c0-0.139-0.027-0.264-0.08-0.376C6.891,3.605,6.816,3.51,6.72,3.431C6.624,3.353,6.511,3.292,6.383,3.249
        C6.255,3.207,6.117,3.186,5.967,3.186c-0.21,0-0.388,0.025-0.534,0.075C5.287,3.31,5.162,3.364,5.059,3.423
        C4.956,3.482,4.87,3.535,4.803,3.583C4.735,3.632,4.678,3.656,4.632,3.656c-0.11,0-0.192-0.048-0.246-0.144L4.087,3.026z
         M5.112,9.364c0-0.103,0.019-0.2,0.056-0.291c0.038-0.091,0.089-0.17,0.155-0.238c0.066-0.067,0.144-0.121,0.235-0.16
        c0.091-0.039,0.188-0.059,0.291-0.059c0.104,0,0.2,0.019,0.291,0.059c0.091,0.039,0.17,0.093,0.237,0.16
        c0.068,0.068,0.121,0.147,0.16,0.238c0.039,0.09,0.059,0.188,0.059,0.291c0,0.107-0.019,0.205-0.059,0.294
        c-0.039,0.089-0.092,0.167-0.16,0.235C6.311,9.96,6.231,10.013,6.14,10.05c-0.091,0.038-0.188,0.056-0.291,0.056
        c-0.103,0-0.2-0.019-0.291-0.056c-0.091-0.038-0.169-0.09-0.235-0.157C5.258,9.825,5.206,9.747,5.168,9.658
        C5.131,9.569,5.112,9.471,5.112,9.364z"/>
</g>
</svg>
