<?xml version="1.0" encoding="UTF-8"?><!DOCTYPE svg PUBLIC "-//W3C//DTD SVG 1.1//EN" "http://www.w3.org/Graphics/SVG/1.1/DTD/svg11.dtd"><svg xmlns="http://www.w3.org/2000/svg" xmlns:xlink="http://www.w3.org/1999/xlink" xmlns:dc="http://purl.org/dc/elements/1.1/" xmlns:cc="http://creativecommons.org/ns#" xmlns:rdf="http://www.w3.org/1999/02/22-rdf-syntax-ns#" xmlns:svg="http://www.w3.org/2000/svg" xmlns:sodipodi="http://sodipodi.sourceforge.net/DTD/sodipodi-0.dtd" xmlns:inkscape="http://www.inkscape.org/namespaces/inkscape"><defs><path id="facebook-a" d="M1.96.62c.5-.45 1.2-.6 1.87-.62h2.12v2.1H4.58c-.3-.02-.6.2-.64.46v1.4h2c-.05.68-.14 1.35-.24 2.02H3.93v6H1.28c-.02-2 0-4-.02-6H0v-2c.43-.02.86 0 1.28 0 .02-.67 0-1.32.02-1.97.04-.5.25-1.02.66-1.37z"/><path id="instagram-a" d="M7.5 0C5.46 0 5.2 0 4.4.05 3.6.08 3.07.2 2.6.4c-.5.2-.92.44-1.34.86C.84 1.68.6 2.1.4 2.6c-.2.46-.32 1-.36 1.8C0 5.2 0 5.47 0 7.5s0 2.3.04 3.1c.04.8.17 1.34.35 1.8.2.5.4.92.8 1.34.4.42.8.67 1.3.87.4.2 1 .4 1.8.4.8.1 1 .1 3.1.1h3.1c.8-.02 1.3-.15 1.8-.33.5-.2.9-.44 1.3-.86.4-.44.65-.85.85-1.35.2-.46.3-1 .35-1.8.03-.8.04-1.06.04-3.1s0-2.3-.06-3.1c-.05-.8-.18-1.34-.36-1.8-.2-.5-.43-.92-.85-1.34-.4-.43-.84-.7-1.34-.9-.47-.2-1-.3-1.8-.32C9.8 0 9.5 0 7.5 0zm0 1.35c2 0 2.24 0 3.03.05.73.03 1.13.15 1.4.25.34.14.6.3.86.56.2.3.4.6.5.9.1.3.2.7.2 1.4v3s0 2.3-.04 3.1c0 .8-.14 1.2-.24 1.4-.15.4-.3.6-.57.9-.28.3-.53.4-.88.6-.3.1-.7.2-1.4.26-.8.05-1.05.06-3.05.06s-2.26 0-3.05-.02c-.73-.03-1.13-.15-1.4-.25-.34-.14-.6-.3-.86-.56-.23-.28-.4-.53-.53-.88-.1-.3-.2-.7-.24-1.4-.04-.8-.05-1.05-.05-3.05s0-2.24.03-3.03c.06-.74.18-1.14.28-1.4.14-.35.3-.6.56-.87.3-.25.54-.4.9-.55.26-.1.66-.2 1.4-.23.8-.05 1.02-.06 3.02-.06zM3.65 7.5c0-2.13 1.72-3.85 3.85-3.85s3.85 1.72 3.85 3.85-1.72 3.85-3.85 3.85S3.65 9.63 3.65 7.5zM7.5 10C6.12 10 5 8.88 5 7.5S6.12 5 7.5 5 10 6.12 10 7.5 8.88 10 7.5 10zm4-5.6c.5 0 .9-.4.9-.9s-.4-.9-.9-.9-.9.4-.9.9.4.9.9.9z"/><path id="linkedin-a" d="M1.46 0C.58 0 0 .6 0 1.4c0 .78.56 1.4 1.42 1.4h.02c.9 0 1.45-.62 1.45-1.4C2.84.6 2.3 0 1.42 0zM12 7.36V12H9.43V7.67c0-1.1-.37-1.83-1.3-1.83-.72 0-1.14.5-1.32.98-.03.18-.05.42-.05.66V12h-2.6s.04-7.34 0-8.1h2.58v1.15l-.02.03h.03v-.03c.34-.55.95-1.34 2.32-1.34 1.7 0 2.95 1.2 2.95 3.7zM2.72 12H.15V3.9h2.57V12z"/><path id="a" d="M7.22 15.44c4.54 0 8.22-3.68 8.22-8.22h-2c0 3.44-2.78 6.22-6.22 6.22v2zm8.22-8.22C15.44 2.68 11.76-1 7.22-1v2c3.44 0 6.22 2.8 6.22 6.22h2zM7.22-1C2.68-1-1 2.68-1 7.22h2C1 3.8 3.8 1 7.22 1v-2zM-1 7.22c0 4.54 3.68 8.22 8.22 8.22v-2C3.8 13.44 1 10.66 1 7.22h-2z"/><path id="b" d="M1.26-.15c-.4-.4-1.02-.4-1.4 0-.4.4-.4 1.02 0 1.4l1.4-1.4zM4.3 5.7c.38.4 1.02.4 1.4 0 .4-.38.4-1.02 0-1.4L4.3 5.7zM-.16 1.27L4.3 5.7l1.4-1.4L1.27-.16l-1.4 1.4z"/><path id="twitter-a" d="M10.77 2.24v.3c0 3-2.47 6.46-7 6.46C2.37 9 1.1 8.62 0 7.98L.6 8c1.14 0 2.2-.35 3.05-.96-1.08-.02-2-.68-2.3-1.58.14.03.3.04.46.04.25 0 .47-.03.68-.08-1.14-.2-2-1.12-2-2.22v-.03c.34.16.7.27 1.1.28C.96 3.05.5 2.35.5 1.55c0-.4.12-.8.33-1.13C2.05 1.8 3.86 2.7 5.9 2.8c-.04-.18-.05-.35-.05-.53C5.85 1.02 6.95 0 8.3 0c.72 0 1.36.28 1.8.72.57-.1 1.1-.3 1.57-.55-.2.53-.58.97-1.08 1.25.46-.05.94-.17 1.4-.35-.35.45-.77.85-1.25 1.17z"/><path id="youtube-a" d="M0 7c0-2.33.3-3.64.3-3.64C.56 1.9 1.96.53 3.47.34 3.47.34 4.87 0 9 0c4.13 0 5.54.34 5.54.34 1.5.2 2.92 1.56 3.14 3.03 0 0 .32 1.48.32 3.63s-.32 3.63-.32 3.63c-.23 1.47-1.64 2.8-3.15 3 0 0-2.22.37-5.53.37-3.3 0-5.53-.38-5.53-.38-1.5-.2-2.94-1.52-3.16-3 0 0-.3-1.3-.3-3.62zm7.58 3.13c-.43.25-.78.06-.78-.43V4.3c0-.5.35-.68.78-.43l4.5 2.67c.43.25.42.67 0 .92l-4.5 2.67z"/></defs><symbol id="add_circle" viewBox="0 0 24 24">
<path d="M17.016 12.984v-1.969h-4.031v-4.031h-1.969v4.031h-4.031v1.969h4.031v4.031h1.969v-4.031h4.031zM12 2.016q4.125 0 7.055 2.93t2.93 7.055-2.93 7.055-7.055 2.93-7.055-2.93-2.93-7.055 2.93-7.055 7.055-2.93z"/>
</symbol><symbol id="arrow_drop_down" viewBox="0 0 24 24">
<path d="M6.984 9.984h10.031l-5.016 5.016z"/>
</symbol><symbol id="arrow_drop_up" viewBox="0 0 24 24">
<path d="M6.984 14.016l5.016-5.016 5.016 5.016h-10.031z"/>
</symbol><symbol id="checkmark-02" viewBox="0 0 512 512"><path d="M461.6 109.6l-54.9-43.3c-1.7-1.4-3.8-2.4-6.2-2.4-2.4 0-4.6 1-6.3 2.5L194.5 323s-78.5-75.5-80.7-77.7c-2.2-2.2-5.1-5.9-9.5-5.9s-6.4 3.1-8.7 5.4c-1.7 1.8-29.7 31.2-43.5 45.8-.8.9-1.3 1.4-2 2.1-1.2 1.7-2 3.6-2 5.7 0 2.2.8 4 2 5.7l2.8 2.6s139.3 133.8 141.6 136.1c2.3 2.3 5.1 5.2 9.2 5.2 4 0 7.3-4.3 9.2-6.2l249.1-320c1.2-1.7 2-3.6 2-5.8 0-2.5-1-4.6-2.4-6.4z"/></symbol><symbol id="chevron-down-02" viewBox="0 0 512 512"><path d="M256 298.3l174.2-167.2c4.3-4.2 11.4-4.1 15.8.2l30.6 29.9c4.4 4.3 4.5 11.3.2 15.5L264.1 380.9c-2.2 2.2-5.2 3.2-8.1 3-3 .1-5.9-.9-8.1-3L35.2 176.7c-4.3-4.2-4.2-11.2.2-15.5L66 131.3c4.4-4.3 11.5-4.4 15.8-.2L256 298.3z"/></symbol><symbol id="chevron-down" viewBox="0 0 24 24"><path d="M7.406 7.828L12 12.422l4.594-4.594L18 9.234l-6 6-6-6z"/></symbol><symbol id="chevron-left" viewBox="0 0 24 24">
<path d="M15.422 16.078l-1.406 1.406-6-6 6-6 1.406 1.406-4.594 4.594z"/>
</symbol><symbol id="chevron-right" viewBox="0 0 24 24">
<path d="M8.578 16.359l4.594-4.594-4.594-4.594 1.406-1.406 6 6-6 6z"/>
</symbol><symbol id="chevron-up-02" viewBox="0 0 512 512"><path d="M256 213.7l174.2 167.2c4.3 4.2 11.4 4.1 15.8-.2l30.6-29.9c4.4-4.3 4.5-11.3.2-15.5L264.1 131.1c-2.2-2.2-5.2-3.2-8.1-3-3-.1-5.9.9-8.1 3L35.2 335.3c-4.3 4.2-4.2 11.2.2 15.5L66 380.7c4.4 4.3 11.5 4.4 15.8.2L256 213.7z"/></symbol><symbol id="chevron-up" viewBox="0 0 24 24">
<path d="M7.406 15.422l-1.406-1.406 6-6 6 6-1.406 1.406-4.594-4.594z"/>
</symbol><symbol id="close"><path d="M18.98 6.42L13.4 12 19 17.58l-1.4 1.4L12 13.4 6.42 19l-1.4-1.4L10.6 12 5 6.42l1.4-1.4L12 10.6 17.58 5z"/></symbol><symbol id="close_circle" viewBox="0 0 24 24">
<path d="M17.016 15.609l-3.609-3.609 3.609-3.609-1.406-1.406-3.609 3.609-3.609-3.609-1.406 1.406 3.609 3.609-3.609 3.609 1.406 1.406 3.609-3.609 3.609 3.609zM12 2.016q4.125 0 7.055 2.93t2.93 7.055-2.93 7.055-7.055 2.93-7.055-2.93-2.93-7.055 2.93-7.055 7.055-2.93z"/>
</symbol><symbol id="equalizer" viewBox="0 0 32 32">
    <title>equalizer</title>
    <path d="M14 4v-0.5c0-0.825-0.675-1.5-1.5-1.5h-5c-0.825 0-1.5 0.675-1.5 1.5v0.5h-6v4h6v0.5c0 0.825 0.675 1.5 1.5 1.5h5c0.825 0 1.5-0.675 1.5-1.5v-0.5h18v-4h-18zM8 8v-4h4v4h-4zM26 13.5c0-0.825-0.675-1.5-1.5-1.5h-5c-0.825 0-1.5 0.675-1.5 1.5v0.5h-18v4h18v0.5c0 0.825 0.675 1.5 1.5 1.5h5c0.825 0 1.5-0.675 1.5-1.5v-0.5h6v-4h-6v-0.5zM20 18v-4h4v4h-4zM14 23.5c0-0.825-0.675-1.5-1.5-1.5h-5c-0.825 0-1.5 0.675-1.5 1.5v0.5h-6v4h6v0.5c0 0.825 0.675 1.5 1.5 1.5h5c0.825 0 1.5-0.675 1.5-1.5v-0.5h18v-4h-18v-0.5zM8 28v-4h4v4h-4z"/>
</symbol><symbol id="facebook" viewBox="0 0 864 1664"><path d="M864 12v264H707q-86 0-116 36t-30 108v189h293l-39 296H561v759H255V905H0V609h255V391q0-186 104-288.5T636 0q147 0 228 12z"/></symbol><symbol id="facebook_old"><use xlink:href="#facebook-a" transform="translate(6 3)"/></symbol><symbol id="globe" viewBox="0 0 24 24">
<path d="M17.906 17.391q2.109-2.25 2.109-5.391 0-2.484-1.383-4.5t-3.633-2.906v0.422q0 0.797-0.609 1.383t-1.406 0.586h-1.969v2.016q0 0.422-0.305 0.703t-0.727 0.281h-1.969v2.016h6q0.422 0 0.703 0.281t0.281 0.703v3h0.984q1.406 0 1.922 1.406zM11.016 19.922v-1.922q-0.797 0-1.406-0.609t-0.609-1.406v-0.984l-4.781-4.781q-0.234 0.938-0.234 1.781 0 3.047 2.039 5.297t4.992 2.625zM12 2.016q4.125 0 7.055 2.93t2.93 7.055-2.93 7.055-7.055 2.93-7.055-2.93-2.93-7.055 2.93-7.055 7.055-2.93z"/>
</symbol><symbol id="google" viewBox="0 0 8 8">
                <path stroke="none" d="M4 3.5v1.3h2c0 .5-.6 1.6-2 1.6-1.3 0-2.4-1-2.4-2.4 0-1.3 1-2.4 2.3-2.4.8 0 1.3.3 1.5.6l1-1C5.8.6 5 .2 4 .2a3.7 3.7 0 1 0 0 7.5c2.2 0 3.6-1.5 3.6-3.6v-.6H3.9z"/>
            </symbol><symbol id="google_old" viewBox="0 0 24 24">
<path d="M12 1.981c-5.533 0-10.019 4.486-10.019 10.019s4.486 10.019 10.019 10.019 10.019-4.486 10.019-10.019-4.486-10.019-10.019-10.019zM11.422 16.301c-0.63 0.306-1.306 0.338-1.569 0.338-0.050 0-0.078 0-0.078 0s-0.024 0-0.057 0c-0.409 0-2.446-0.094-2.446-1.948 0-1.822 2.218-1.966 2.897-1.966h0.017c-0.392-0.524-0.311-1.052-0.311-1.052-0.035 0.002-0.084 0.004-0.146 0.004-0.256 0-0.75-0.041-1.173-0.314-0.52-0.334-0.783-0.903-0.783-1.69 0-2.224 2.428-2.313 2.453-2.316h2.426v0.053c0 0.271-0.487 0.324-0.819 0.37-0.113 0.017-0.339 0.038-0.403 0.071 0.615 0.329 0.714 0.845 0.714 1.612 0 0.875-0.343 1.337-0.705 1.661-0.225 0.202-0.402 0.359-0.402 0.571 0 0.208 0.242 0.419 0.524 0.667 0.46 0.406 1.092 0.958 1.092 1.89 0 0.964-0.414 1.653-1.232 2.047zM16.697 12h-1.566v1.566h-1.044v-1.566h-1.566v-1.044h1.566v-1.566h1.044v1.566h1.566v1.044zM10.146 13.2c-0.054 0-0.109 0.002-0.164 0.006-0.464 0.035-0.891 0.208-1.2 0.49-0.307 0.277-0.464 0.628-0.442 0.982 0.047 0.742 0.844 1.176 1.811 1.107 0.951-0.069 1.586-0.618 1.54-1.36-0.043-0.698-0.651-1.225-1.546-1.225zM11.057 9.166c-0.252-0.887-0.659-1.15-1.292-1.15-0.068 0-0.137 0.010-0.203 0.028-0.275 0.078-0.492 0.307-0.614 0.647-0.124 0.344-0.131 0.704-0.025 1.112 0.193 0.731 0.713 1.262 1.237 1.262 0.069 0 0.137-0.009 0.203-0.028 0.573-0.161 0.932-1.035 0.694-1.872z"/>
</symbol><symbol id="instagram" viewBox="0 0 16 16"><path d="M8 1.85c2 0 2.24 0 3.03.05.73.03 1.13.15 1.4.25.34.14.6.3.86.56.26.27.42.52.56.87.1.26.22.66.25 1.39.04.79.05 1.03.05 3.03 0 2 0 2.24-.05 3.03a4.15 4.15 0 0 1-.25 1.4c-.14.34-.3.6-.56.86-.27.26-.52.42-.87.56-.26.1-.66.22-1.39.25-.79.04-1.03.05-3.03.05-2 0-2.24 0-3.03-.05a4.15 4.15 0 0 1-1.4-.25c-.34-.14-.6-.3-.86-.56a2.32 2.32 0 0 1-.56-.87c-.1-.26-.22-.66-.25-1.39-.04-.79-.05-1.03-.05-3.03 0-2 0-2.24.05-3.03.03-.73.15-1.13.25-1.4.14-.34.3-.6.56-.86.27-.26.52-.42.87-.56.26-.1.66-.22 1.39-.25C5.76 1.86 6 1.85 8 1.85zM8 .5C5.96.5 5.7.5 4.9.55A5.5 5.5 0 0 0 3.1.89c-.5.2-.91.45-1.33.87-.42.42-.67.83-.87 1.33A5.5 5.5 0 0 0 .55 4.9C.5 5.7.5 5.96.5 8s0 2.3.05 3.1c.03.8.16 1.34.34 1.81.2.5.45.91.87 1.33.42.42.83.67 1.33.87a5.5 5.5 0 0 0 1.82.34c.8.04 1.05.05 3.09.05s2.3 0 3.1-.05a5.5 5.5 0 0 0 1.81-.34c.5-.2.91-.45 1.33-.87.42-.42.67-.83.87-1.33a5.5 5.5 0 0 0 .34-1.82c.04-.8.05-1.05.05-3.09s0-2.3-.05-3.1a5.5 5.5 0 0 0-.34-1.81c-.2-.5-.45-.91-.87-1.33a3.68 3.68 0 0 0-1.33-.87A5.5 5.5 0 0 0 11.1.55 53.2 53.2 0 0 0 8 .5zm0 3.65a3.85 3.85 0 1 0 0 7.7 3.85 3.85 0 0 0 0-7.7zm0 6.35a2.5 2.5 0 1 1 0-5 2.5 2.5 0 0 1 0 5zM12.9 4a.9.9 0 1 1-1.8 0 .9.9 0 0 1 1.8 0z"/></symbol><symbol id="instagram_old" viewBox="0 0 18 18"><use xlink:href="#instagram-a" transform="translate(1.5 1.5)"/></symbol><symbol id="linkedin" viewBox="0 0 1536 1468"><path d="M349 477v991H19V477h330zm21-306q1 73-50.5 122T184 342h-2q-82 0-132-49T0 171Q0 97 51.5 48.5T186 0t133 48.5T370 171zm1166 729v568h-329V938q0-105-40.5-164.5T1040 714q-63 0-105.5 34.5T871 834q-11 30-11 81v553H531q2-399 2-647t-1-296l-1-48h329v144h-2q20-32 41-56t56.5-52 87-43.5T1157 454q171 0 275 113.5T1536 900z"/></symbol><symbol id="linkedin_old"><use xlink:href="#linkedin-a" transform="translate(3 3)"/></symbol><symbol id="loading-squares" viewBox="0 0 100 100"><rect x="0" y="0" width="100" height="100" class="bk"/><rect x="15" y="15" width="20" height="20" class="sq"><animate attributeName="fill" from="#969a9c" to="#91d0d9" repeatCount="indefinite" dur="1s" begin="0.0s" values="#91d0d9;#91d0d9;#969a9c;#969a9c" keyTimes="0;0.1;0.2;1"/></rect><rect x="40" y="15" width="20" height="20" class="sq"><animate attributeName="fill" from="#969a9c" to="#91d0d9" repeatCount="indefinite" dur="1s" begin="0.125s" values="#91d0d9;#91d0d9;#969a9c;#969a9c" keyTimes="0;0.1;0.2;1"/></rect><rect x="65" y="15" width="20" height="20" class="sq"><animate attributeName="fill" from="#969a9c" to="#91d0d9" repeatCount="indefinite" dur="1s" begin="0.25s" values="#91d0d9;#91d0d9;#969a9c;#969a9c" keyTimes="0;0.1;0.2;1"/></rect><rect x="15" y="40" width="20" height="20" class="sq"><animate attributeName="fill" from="#969a9c" to="#91d0d9" repeatCount="indefinite" dur="1s" begin="0.875s" values="#91d0d9;#91d0d9;#969a9c;#969a9c" keyTimes="0;0.1;0.2;1"/></rect><rect x="65" y="40" width="20" height="20" class="sq"><animate attributeName="fill" from="#969a9c" to="#91d0d9" repeatCount="indefinite" dur="1s" begin="0.375" values="#91d0d9;#91d0d9;#969a9c;#969a9c" keyTimes="0;0.1;0.2;1"/></rect><rect x="15" y="65" width="20" height="20" class="sq"><animate attributeName="fill" from="#969a9c" to="#91d0d9" repeatCount="indefinite" dur="1s" begin="0.75s" values="#91d0d9;#91d0d9;#969a9c;#969a9c" keyTimes="0;0.1;0.2;1"/></rect><rect x="40" y="65" width="20" height="20" class="sq"><animate attributeName="fill" from="#969a9c" to="#91d0d9" repeatCount="indefinite" dur="1s" begin="0.625s" values="#91d0d9;#91d0d9;#969a9c;#969a9c" keyTimes="0;0.1;0.2;1"/></rect><rect x="65" y="65" width="20" height="20" class="sq"><animate attributeName="fill" from="#969a9c" to="#91d0d9" repeatCount="indefinite" dur="1s" begin="0.5s" values="#91d0d9;#91d0d9;#969a9c;#969a9c" keyTimes="0;0.1;0.2;1"/></rect></symbol><symbol id="logo-full" viewBox="0 0 120 24">
<path d="M0 0l12.566 23.464 5.36-10.124-7.027-13.34h-10.898z"/>
<path d="M24.983 0h-11.107l5.538 10.511 5.568-10.511z"/>
<path d="M38.323 8.486l4.526 12 4.496-12h2.501l-5.955 14.978h-2.025l-6.045-14.978h2.501z"/>
<path d="M68.248 21.38v2.084h-10.273v-14.978h10.065v2.084h-7.712v4.258h6.67v1.965h-6.67v4.586h7.921z"/>
<path d="M77.092 23.464v-14.978h2.352v12.893h8.040v2.084h-10.392z"/>
<path d="M95.851 23.464v-14.948h2.352v14.948h-2.352z"/>
<path d="M107.911 23.464v-14.978h6.521c0.685 0 1.31 0.149 1.876 0.417s1.072 0.655 1.459 1.102c0.417 0.447 0.715 0.983 0.953 1.548 0.238 0.596 0.357 1.191 0.357 1.787 0 0.506-0.060 0.983-0.208 1.459s-0.328 0.893-0.596 1.28c-0.268 0.387-0.566 0.744-0.923 1.012-0.357 0.298-0.774 0.506-1.191 0.655l3.573 5.687h-2.68l-3.275-5.211h-3.454v5.211h-2.412v0.030zM110.293 16.169h4.139c0.328 0 0.655-0.089 0.923-0.208 0.268-0.149 0.506-0.357 0.715-0.625s0.357-0.566 0.476-0.893c0.119-0.328 0.179-0.685 0.179-1.072s-0.060-0.744-0.208-1.072c-0.119-0.328-0.298-0.625-0.536-0.893-0.208-0.238-0.476-0.447-0.744-0.596-0.298-0.149-0.596-0.208-0.893-0.208h-4.020v5.568h-0.030z"/>
</symbol><symbol id="pub-date" viewBox="0 0 24 24">
<path d="M12.516 6.984v5.25l4.5 2.672-0.75 1.266-5.25-3.188v-6h1.5zM12 20.016q3.281 0 5.648-2.367t2.367-5.648-2.367-5.648-5.648-2.367-5.648 2.367-2.367 5.648 2.367 5.648 5.648 2.367zM12 2.016q4.125 0 7.055 2.93t2.93 7.055-2.93 7.055-7.055 2.93-7.055-2.93-2.93-7.055 2.93-7.055 7.055-2.93z"/>
</symbol><symbol id="remove_circle" viewBox="0 0 24 24">
<path d="M17.016 12.984v-1.969h-10.031v1.969h10.031zM12 2.016q4.125 0 7.055 2.93t2.93 7.055-2.93 7.055-7.055 2.93-7.055-2.93-2.93-7.055 2.93-7.055 7.055-2.93z"/>
</symbol><symbol id="rss" viewBox="0 0 66.25 65.861">
  <metadata id="metadata841">
    <rdf:RDF>
      <cc:Work rdf:about="">
        <dc:format>image/svg+xml</dc:format>
        <dc:type rdf:resource="http://purl.org/dc/dcmitype/StillImage"/>
        <dc:title/>
      </cc:Work>
    </rdf:RDF>
  </metadata>
  
  <sodipodi:namedview pagecolor="#ffffff" bordercolor="#666666" borderopacity="1" objecttolerance="10" gridtolerance="10" guidetolerance="10" inkscape:pageopacity="0" inkscape:pageshadow="2" inkscape:window-width="2560" inkscape:window-height="1529" id="namedview837" showgrid="false" inkscape:zoom="13.06" inkscape:cx="29.718649" inkscape:cy="32.931" inkscape:window-x="-11" inkscape:window-y="-11" inkscape:window-maximized="1" inkscape:current-layer="svg835"/>
  <path d="m 9.384,47.879 a 8.78,8.78 0 0 0 -8.78,8.784 8.782,8.782 0 1 0 17.564,0 8.78,8.78 0 0 0 -8.784,-8.784 z" id="path829" inkscape:connector-curvature="0"/>
  <path d="m 6.662,23.731 c -0.046,0 -0.09,0.006 -0.135,0.007 V 23.731 H 3.063 V 23.77 A 3.437,3.437 0 0 0 0.007,27.114 H 0 v 6.159 h 0.041 a 3.43,3.43 0 0 0 3.021,3.002 v 0.039 h 3.464 v -0.048 c 0.045,0.001 0.09,0.007 0.135,0.007 12.772,0 23.173,10.321 23.311,23.061 h -0.033 v 3.464 h 0.039 a 3.437,3.437 0 0 0 3.344,3.056 v 0.007 H 39.48 V 65.82 a 3.43,3.43 0 0 0 3.002,-3.021 h 0.039 V 59.335 H 42.515 C 42.378,39.678 26.349,23.731 6.662,23.731 Z" id="path831" inkscape:connector-curvature="0"/>
  <path d="M 66.245,59.333 C 66.106,26.594 39.434,0 6.662,0 6.616,0 6.572,0.006 6.527,0.007 V 0 H 3.063 V 0.039 A 3.437,3.437 0 0 0 0.007,3.383 H 0 v 6.159 h 0.041 a 3.429,3.429 0 0 0 3.021,3.002 v 0.039 h 3.464 v -0.048 c 0.045,10e-4 0.09,0.007 0.135,0.007 25.857,0 46.902,20.967 47.041,46.792 h -0.035 v 3.464 h 0.039 a 3.437,3.437 0 0 0 3.344,3.056 v 0.007 h 6.159 V 65.82 a 3.43,3.43 0 0 0 3.002,-3.021 h 0.039 v -3.464 h -0.005 z" id="path833" inkscape:connector-curvature="0"/>
</symbol><symbol id="rss_old" viewBox="0 0 24 24">
<path d="M12 2.001c-5.522 0-9.999 4.477-9.999 9.999s4.477 9.999 9.999 9.999 9.999-4.477 9.999-9.999-4.477-9.999-9.999-9.999zM8.25 17c-0.69 0-1.25-0.56-1.25-1.25s0.56-1.25 1.25-1.25 1.25 0.56 1.25 1.25-0.56 1.25-1.25 1.25zM11.688 17c0-2.584-2.103-4.687-4.687-4.687v-1.875c3.618 0 6.562 2.944 6.562 6.562h-1.875zM15.437 17c0-2.254-0.878-4.372-2.471-5.966s-3.712-2.471-5.966-2.471v-1.875c2.754 0 5.344 1.073 7.292 3.020s3.020 4.537 3.020 7.291h-1.875z"/>
</symbol><symbol id="rss_old2" viewBox="0 0 24 24">

  

  <path d="m 12.077966,0.07784281 c -6.5984261,0 -11.94814596,5.36135609 -11.94814596,11.97413419 0,6.612778 5.34971986,11.974134 11.94814596,11.974134 6.598425,0 11.948145,-5.361356 11.948145,-11.974134 0,-6.6127781 -5.34972,-11.97413419 -11.948145,-11.97413419 z M 7.5969631,18.039643 c -0.8245046,0 -1.4936676,-0.670619 -1.4936676,-1.496916 0,-0.826298 0.669163,-1.496917 1.4936676,-1.496917 0.8245045,0 1.4936681,0.670619 1.4936681,1.496917 0,0.826297 -0.6691636,1.496916 -1.4936681,1.496916 z m 4.1081829,0 c 0,-3.094426 -2.5129466,-5.612838 -5.6006556,-5.612838 v -2.245374 c 4.3232706,0 7.8411566,3.525537 7.8411566,7.858212 z m 4.479809,0 c 0,-2.69924 -1.049153,-5.235614 -2.952683,-7.144483 C 11.328743,8.9862923 8.7966768,7.9360557 6.1032955,7.9360557 V 5.690681 c 3.290848,0 6.3857275,1.2849531 8.7134595,3.6165502 2.327732,2.3315978 3.6087,5.4332078 3.6087,8.7312148 h -2.2405 z" id="path825" inkscape:connector-curvature="0" style="stroke-width: 1.1962328;"/>
</symbol><symbol id="rss_old3" viewBox="0 0 100 100"><path d="M26.258 64.949a8.78 8.78 0 0 0-8.78 8.784 8.782 8.782 0 1 0 17.564 0 8.78 8.78 0 0 0-8.784-8.784z"/><path d="M23.536 40.801c-.046 0-.09.006-.135.007v-.007h-3.464v.039a3.437 3.437 0 0 0-3.056 3.344h-.007v6.159h.041a3.43 3.43 0 0 0 3.021 3.002v.039H23.4v-.048c.045.001.09.007.135.007 12.772 0 23.173 10.321 23.311 23.061h-.033v3.464h.039a3.437 3.437 0 0 0 3.344 3.056v.007h6.158v-.041a3.43 3.43 0 0 0 3.002-3.021h.039v-3.464h-.006c-.137-19.657-16.166-35.604-35.853-35.604z"/><path d="M83.119 76.403C82.98 43.664 56.308 17.07 23.536 17.07c-.046 0-.09.006-.135.007v-.007h-3.464v.039a3.437 3.437 0 0 0-3.056 3.344h-.007v6.159h.041a3.429 3.429 0 0 0 3.021 3.002v.039H23.4v-.048c.045.001.09.007.135.007 25.857 0 46.902 20.967 47.041 46.792h-.035v3.464h.039a3.437 3.437 0 0 0 3.344 3.056v.007h6.159v-.041a3.43 3.43 0 0 0 3.002-3.021h.039v-3.464h-.005z"/></symbol><symbol id="search-pew"><use xlink:href="#a" transform="translate(1.11 1.11)"/><use xlink:href="#b" transform="translate(13.33 13.333)"/></symbol><symbol id="search" viewBox="0 0 24 24">
<path d="M9.516 14.016q1.875 0 3.188-1.313t1.313-3.188-1.313-3.188-3.188-1.313-3.188 1.313-1.313 3.188 1.313 3.188 3.188 1.313zM15.516 14.016l4.969 4.969-1.5 1.5-4.969-4.969v-0.797l-0.281-0.281q-1.781 1.547-4.219 1.547-2.719 0-4.617-1.875t-1.898-4.594 1.898-4.617 4.617-1.898 4.594 1.898 1.875 4.617q0 2.438-1.547 4.219l0.281 0.281h0.797z"/>
</symbol><symbol id="twitter" viewBox="0 0 1576 1280"><path d="M1576 152q-67 98-162 167 1 14 1 42 0 130-38 259.5T1261.5 869 1077 1079.5t-258 146-323 54.5q-271 0-496-145 35 4 78 4 225 0 401-138-105-2-188-64.5T177 777q33 5 61 5 43 0 85-11-112-23-185.5-111.5T64 454v-4q68 38 146 41-66-44-105-115T66 222q0-88 44-163 121 149 294.5 238.5T776 397q-8-38-8-74 0-134 94.5-228.5T1091 0q140 0 236 102 109-21 205-78-37 115-142 178 93-10 186-50z"/></symbol><symbol id="twitter_old"><use xlink:href="#twitter-a" transform="translate(3 4.5)"/></symbol><symbol id="unfold_less" viewBox="0 0 24 24">
<path d="M16.594 5.391l-4.594 4.594-4.594-4.594 1.406-1.406 3.188 3.188 3.188-3.188zM7.406 18.609l4.594-4.594 4.594 4.594-1.406 1.406-3.188-3.188-3.188 3.188z"/>
</symbol><symbol id="unfold_more" viewBox="0 0 24 24">
<path d="M12 18.188l3.188-3.188 1.406 1.406-4.594 4.594-4.594-4.594 1.406-1.406zM12 5.813l-3.188 3.188-1.406-1.406 4.594-4.594 4.594 4.594-1.406 1.406z"/>
</symbol><symbol id="youtube" viewBox="0 0 1792 1280"><path d="M1280 640q0-37-30-54L738 266q-31-20-65-2-33 18-33 56v640q0 38 33 56 16 8 31 8 20 0 34-10l512-320q30-17 30-54zm512 0q0 96-1 150t-8.5 136.5T1760 1074q-16 73-69 123t-124 58q-222 25-671 25t-671-25q-71-8-124.5-58T31 1074q-14-65-21.5-147.5T1 790 0 640t1-150 8.5-136.5T32 206q16-73 69-123t124-58Q447 0 896 0t671 25q71 8 124.5 58t69.5 123q14 65 21.5 147.5T1791 490t1 150z"/></symbol><symbol id="youtube_old"><use xlink:href="#youtube-a"/></symbol></svg>